<svg xmlns="http://www.w3.org/2000/svg" xmlns:xlink="http://www.w3.org/1999/xlink" width="240" zoomAndPan="magnify" viewBox="0 0 180 89.999999" height="120" preserveAspectRatio="xMidYMid meet" version="1.0"><defs><g/><clipPath id="e504c6d583"><rect x="0" width="114" y="0" height="30"/></clipPath><clipPath id="8f3a0392ba"><rect x="0" width="57" y="0" height="9"/></clipPath></defs><rect x="-18" width="216" fill="#ffffff" y="-9" height="107.999999" fill-opacity="1"/><rect x="-18" width="216" fill="#ffffff" y="-9" height="107.999999" fill-opacity="1"/><g transform="matrix(1, 0, 0, 1, 63, 24)"><g clip-path="url(#e504c6d583)"><g fill="#3d3b3a" fill-opacity="1"><g transform="translate(0.707869, 13.298845)"><g><path d="M 0.65625 -7.96875 L 3.5 -7.96875 L 6.328125 -1.953125 L 5.9375 -1.953125 L 8.484375 -7.96875 L 11.359375 -7.96875 L 11.390625 -7.28125 L 10.53125 -7.078125 C 10.519531 -6.953125 10.519531 -6.742188 10.53125 -6.453125 C 10.539062 -6.171875 10.546875 -5.8125 10.546875 -5.375 L 10.640625 -3 C 10.648438 -2.613281 10.664062 -2.269531 10.6875 -1.96875 C 10.707031 -1.675781 10.722656 -1.4375 10.734375 -1.25 C 10.742188 -1.0625 10.753906 -0.941406 10.765625 -0.890625 L 11.640625 -0.671875 L 11.59375 0 L 7.90625 0 L 7.875 -0.671875 L 8.734375 -0.890625 C 8.742188 -0.941406 8.75 -1.050781 8.75 -1.21875 C 8.757812 -1.394531 8.765625 -1.628906 8.765625 -1.921875 C 8.765625 -2.222656 8.757812 -2.578125 8.75 -2.984375 L 8.703125 -7.5625 L 9.328125 -7.5625 L 6.109375 0.046875 L 5.25 0.046875 L 1.625 -7.5625 L 2.484375 -7.5625 L 2.5 -2.90625 C 2.5 -2.207031 2.5 -1.710938 2.5 -1.421875 C 2.507812 -1.128906 2.519531 -0.953125 2.53125 -0.890625 L 3.46875 -0.671875 L 3.4375 0 L 0.46875 0 L 0.421875 -0.671875 L 1.375 -0.890625 C 1.382812 -0.953125 1.390625 -1.078125 1.390625 -1.265625 C 1.390625 -1.460938 1.394531 -1.695312 1.40625 -1.96875 C 1.414062 -2.238281 1.421875 -2.519531 1.421875 -2.8125 L 1.46875 -5.34375 C 1.476562 -5.820312 1.476562 -6.195312 1.46875 -6.46875 C 1.46875 -6.75 1.46875 -6.945312 1.46875 -7.0625 L 0.609375 -7.28125 Z M 0.65625 -7.96875 "/></g></g></g><g fill="#3d3b3a" fill-opacity="1"><g transform="translate(14.181671, 13.298845)"><g><path d="M 7.046875 0.078125 C 6.796875 0.0546875 6.492188 0.0351562 6.140625 0.015625 C 5.785156 0.00390625 5.460938 0 5.171875 0 L 0.5 0 L 0.46875 -0.671875 L 1.328125 -0.890625 C 1.347656 -0.941406 1.363281 -1.0625 1.375 -1.25 C 1.382812 -1.4375 1.394531 -1.679688 1.40625 -1.984375 C 1.414062 -2.285156 1.421875 -2.617188 1.421875 -2.984375 L 1.421875 -4.96875 C 1.421875 -5.34375 1.414062 -5.679688 1.40625 -5.984375 C 1.394531 -6.285156 1.382812 -6.53125 1.375 -6.71875 C 1.363281 -6.914062 1.347656 -7.03125 1.328125 -7.0625 L 0.46875 -7.28125 L 0.5 -7.96875 L 4.6875 -7.96875 C 4.863281 -7.96875 5.078125 -7.96875 5.328125 -7.96875 C 5.585938 -7.96875 5.84375 -7.972656 6.09375 -7.984375 C 6.34375 -8.003906 6.554688 -8.019531 6.734375 -8.03125 L 7.09375 -6.015625 L 6.3125 -5.921875 L 5.8125 -7.109375 C 5.6875 -7.140625 5.578125 -7.15625 5.484375 -7.15625 C 5.390625 -7.164062 5.289062 -7.171875 5.1875 -7.171875 L 4.15625 -7.171875 C 3.976562 -7.171875 3.8125 -7.164062 3.65625 -7.15625 C 3.5 -7.15625 3.367188 -7.148438 3.265625 -7.140625 C 3.265625 -7.066406 3.257812 -6.957031 3.25 -6.8125 C 3.25 -6.664062 3.242188 -6.476562 3.234375 -6.25 C 3.234375 -6.03125 3.234375 -5.765625 3.234375 -5.453125 L 3.234375 -2.609375 C 3.234375 -2.316406 3.234375 -2.054688 3.234375 -1.828125 C 3.242188 -1.597656 3.25 -1.410156 3.25 -1.265625 C 3.257812 -1.117188 3.265625 -1.003906 3.265625 -0.921875 C 3.429688 -0.890625 3.601562 -0.867188 3.78125 -0.859375 C 3.96875 -0.859375 4.195312 -0.859375 4.46875 -0.859375 L 5.1875 -0.859375 C 5.414062 -0.859375 5.585938 -0.859375 5.703125 -0.859375 C 5.816406 -0.867188 5.898438 -0.875 5.953125 -0.875 C 6.015625 -0.882812 6.078125 -0.894531 6.140625 -0.90625 L 6.890625 -2.265625 L 7.671875 -2.109375 Z M 5.328125 -2.71875 L 5.203125 -3.625 C 5.128906 -3.632812 5.023438 -3.640625 4.890625 -3.640625 C 4.753906 -3.648438 4.597656 -3.65625 4.421875 -3.65625 L 3.703125 -3.65625 C 3.546875 -3.65625 3.394531 -3.648438 3.25 -3.640625 C 3.113281 -3.628906 3.007812 -3.617188 2.9375 -3.609375 L 2.9375 -4.578125 C 3.007812 -4.566406 3.113281 -4.554688 3.25 -4.546875 C 3.394531 -4.535156 3.546875 -4.53125 3.703125 -4.53125 L 4.421875 -4.53125 C 4.597656 -4.53125 4.753906 -4.53125 4.890625 -4.53125 C 5.023438 -4.539062 5.128906 -4.546875 5.203125 -4.546875 L 5.328125 -5.453125 L 6.078125 -5.453125 L 6.078125 -2.71875 Z M 5.328125 -2.71875 "/></g></g></g><g fill="#3d3b3a" fill-opacity="1"><g transform="translate(23.464574, 13.298845)"><g><path d="M 0.515625 0 L 0.46875 -0.671875 L 1.328125 -0.890625 C 1.347656 -0.941406 1.363281 -1.0625 1.375 -1.25 C 1.382812 -1.4375 1.394531 -1.679688 1.40625 -1.984375 C 1.414062 -2.285156 1.421875 -2.617188 1.421875 -2.984375 L 1.421875 -4.96875 C 1.421875 -5.34375 1.414062 -5.679688 1.40625 -5.984375 C 1.394531 -6.285156 1.382812 -6.535156 1.375 -6.734375 C 1.363281 -6.929688 1.347656 -7.039062 1.328125 -7.0625 L 0.46875 -7.28125 L 0.515625 -7.96875 L 4.171875 -7.96875 L 4.203125 -7.28125 L 3.34375 -7.0625 C 3.320312 -7.03125 3.300781 -6.914062 3.28125 -6.71875 C 3.269531 -6.53125 3.257812 -6.28125 3.25 -5.96875 C 3.25 -5.664062 3.25 -5.332031 3.25 -4.96875 L 3.25 -2.984375 C 3.25 -2.628906 3.25 -2.300781 3.25 -2 C 3.257812 -1.707031 3.269531 -1.460938 3.28125 -1.265625 C 3.300781 -1.078125 3.320312 -0.953125 3.34375 -0.890625 L 4.203125 -0.671875 L 4.171875 0 Z M 7.71875 -7.0625 C 7.695312 -7.039062 7.675781 -6.929688 7.65625 -6.734375 C 7.644531 -6.546875 7.632812 -6.300781 7.625 -6 C 7.625 -5.707031 7.625 -5.367188 7.625 -4.984375 L 7.640625 -0.046875 C 7.640625 0.515625 7.535156 1.003906 7.328125 1.421875 C 7.117188 1.847656 6.820312 2.175781 6.4375 2.40625 C 6.0625 2.632812 5.617188 2.75 5.109375 2.75 C 4.546875 2.75 4.082031 2.640625 3.71875 2.421875 C 3.363281 2.210938 3.1875 1.941406 3.1875 1.609375 C 3.1875 1.390625 3.25 1.21875 3.375 1.09375 C 3.507812 0.96875 3.671875 0.90625 3.859375 0.90625 C 4.023438 0.90625 4.179688 0.941406 4.328125 1.015625 C 4.484375 1.085938 4.644531 1.203125 4.8125 1.359375 L 5.765625 2.28125 L 5.015625 2 C 5.242188 2.03125 5.410156 2.007812 5.515625 1.9375 C 5.617188 1.863281 5.691406 1.695312 5.734375 1.4375 C 5.785156 1.175781 5.8125 0.796875 5.8125 0.296875 L 5.796875 -5.03125 C 5.796875 -5.363281 5.789062 -5.675781 5.78125 -5.96875 C 5.769531 -6.257812 5.757812 -6.507812 5.75 -6.71875 C 5.738281 -6.925781 5.722656 -7.050781 5.703125 -7.09375 L 4.75 -7.28125 L 4.796875 -7.96875 L 8.546875 -7.96875 L 8.578125 -7.28125 Z M 7.71875 -7.0625 "/></g></g></g><g fill="#3d3b3a" fill-opacity="1"><g transform="translate(33.900313, 13.298845)"><g><path d="M 7.046875 0.078125 C 6.796875 0.0546875 6.492188 0.0351562 6.140625 0.015625 C 5.785156 0.00390625 5.460938 0 5.171875 0 L 0.5 0 L 0.46875 -0.671875 L 1.328125 -0.890625 C 1.347656 -0.941406 1.363281 -1.0625 1.375 -1.25 C 1.382812 -1.4375 1.394531 -1.679688 1.40625 -1.984375 C 1.414062 -2.285156 1.421875 -2.617188 1.421875 -2.984375 L 1.421875 -4.96875 C 1.421875 -5.34375 1.414062 -5.679688 1.40625 -5.984375 C 1.394531 -6.285156 1.382812 -6.53125 1.375 -6.71875 C 1.363281 -6.914062 1.347656 -7.03125 1.328125 -7.0625 L 0.46875 -7.28125 L 0.5 -7.96875 L 4.6875 -7.96875 C 4.863281 -7.96875 5.078125 -7.96875 5.328125 -7.96875 C 5.585938 -7.96875 5.84375 -7.972656 6.09375 -7.984375 C 6.34375 -8.003906 6.554688 -8.019531 6.734375 -8.03125 L 7.09375 -6.015625 L 6.3125 -5.921875 L 5.8125 -7.109375 C 5.6875 -7.140625 5.578125 -7.15625 5.484375 -7.15625 C 5.390625 -7.164062 5.289062 -7.171875 5.1875 -7.171875 L 4.15625 -7.171875 C 3.976562 -7.171875 3.8125 -7.164062 3.65625 -7.15625 C 3.5 -7.15625 3.367188 -7.148438 3.265625 -7.140625 C 3.265625 -7.066406 3.257812 -6.957031 3.25 -6.8125 C 3.25 -6.664062 3.242188 -6.476562 3.234375 -6.25 C 3.234375 -6.03125 3.234375 -5.765625 3.234375 -5.453125 L 3.234375 -2.609375 C 3.234375 -2.316406 3.234375 -2.054688 3.234375 -1.828125 C 3.242188 -1.597656 3.25 -1.410156 3.25 -1.265625 C 3.257812 -1.117188 3.265625 -1.003906 3.265625 -0.921875 C 3.429688 -0.890625 3.601562 -0.867188 3.78125 -0.859375 C 3.96875 -0.859375 4.195312 -0.859375 4.46875 -0.859375 L 5.1875 -0.859375 C 5.414062 -0.859375 5.585938 -0.859375 5.703125 -0.859375 C 5.816406 -0.867188 5.898438 -0.875 5.953125 -0.875 C 6.015625 -0.882812 6.078125 -0.894531 6.140625 -0.90625 L 6.890625 -2.265625 L 7.671875 -2.109375 Z M 5.328125 -2.71875 L 5.203125 -3.625 C 5.128906 -3.632812 5.023438 -3.640625 4.890625 -3.640625 C 4.753906 -3.648438 4.597656 -3.65625 4.421875 -3.65625 L 3.703125 -3.65625 C 3.546875 -3.65625 3.394531 -3.648438 3.25 -3.640625 C 3.113281 -3.628906 3.007812 -3.617188 2.9375 -3.609375 L 2.9375 -4.578125 C 3.007812 -4.566406 3.113281 -4.554688 3.25 -4.546875 C 3.394531 -4.535156 3.546875 -4.53125 3.703125 -4.53125 L 4.421875 -4.53125 C 4.597656 -4.53125 4.753906 -4.53125 4.890625 -4.53125 C 5.023438 -4.539062 5.128906 -4.546875 5.203125 -4.546875 L 5.328125 -5.453125 L 6.078125 -5.453125 L 6.078125 -2.71875 Z M 5.328125 -2.71875 "/></g></g></g><g fill="#3d3b3a" fill-opacity="1"><g transform="translate(43.183216, 13.298845)"><g><path d="M 0.5625 0 L 0.53125 -0.671875 L 1.390625 -0.90625 C 1.390625 -0.957031 1.390625 -1.0625 1.390625 -1.21875 C 1.398438 -1.375 1.40625 -1.554688 1.40625 -1.765625 C 1.414062 -1.972656 1.421875 -2.1875 1.421875 -2.40625 C 1.429688 -2.625 1.4375 -2.816406 1.4375 -2.984375 L 1.4375 -4.96875 C 1.4375 -5.34375 1.429688 -5.679688 1.421875 -5.984375 C 1.410156 -6.285156 1.398438 -6.53125 1.390625 -6.71875 C 1.378906 -6.914062 1.363281 -7.03125 1.34375 -7.0625 L 0.46875 -7.28125 L 0.515625 -7.96875 L 4.03125 -7.96875 C 5.070312 -7.96875 5.835938 -7.800781 6.328125 -7.46875 C 6.828125 -7.132812 7.078125 -6.613281 7.078125 -5.90625 C 7.078125 -5.457031 6.941406 -5.054688 6.671875 -4.703125 C 6.398438 -4.359375 6.023438 -4.085938 5.546875 -3.890625 C 5.078125 -3.691406 4.535156 -3.59375 3.921875 -3.59375 L 3.03125 -3.59375 L 3.03125 -4.375 L 3.65625 -4.375 C 4.101562 -4.375 4.460938 -4.507812 4.734375 -4.78125 C 5.015625 -5.0625 5.15625 -5.4375 5.15625 -5.90625 C 5.15625 -6.320312 5.039062 -6.640625 4.8125 -6.859375 C 4.582031 -7.085938 4.242188 -7.203125 3.796875 -7.203125 L 3.28125 -7.203125 C 3.269531 -7.171875 3.257812 -7.09375 3.25 -6.96875 C 3.25 -6.84375 3.25 -6.679688 3.25 -6.484375 C 3.25 -6.296875 3.25 -6.082031 3.25 -5.84375 C 3.25 -5.601562 3.25 -5.347656 3.25 -5.078125 L 3.25 -2.984375 C 3.25 -2.742188 3.25 -2.484375 3.25 -2.203125 C 3.257812 -1.929688 3.269531 -1.675781 3.28125 -1.4375 C 3.289062 -1.195312 3.300781 -1.019531 3.3125 -0.90625 L 4.0625 -0.671875 L 4.03125 0 Z M 7.65625 0.15625 C 7.144531 0.15625 6.691406 0.078125 6.296875 -0.078125 C 5.898438 -0.242188 5.546875 -0.5 5.234375 -0.84375 C 4.929688 -1.1875 4.65625 -1.617188 4.40625 -2.140625 L 3.640625 -3.8125 L 5.140625 -4.171875 L 6.75 -1.90625 C 6.945312 -1.644531 7.132812 -1.425781 7.3125 -1.25 C 7.488281 -1.070312 7.675781 -0.925781 7.875 -0.8125 C 8.082031 -0.695312 8.296875 -0.609375 8.515625 -0.546875 L 8.5 0.078125 C 8.351562 0.109375 8.210938 0.128906 8.078125 0.140625 C 7.941406 0.148438 7.800781 0.15625 7.65625 0.15625 Z M 7.65625 0.15625 "/></g></g></g><g fill="#3d3b3a" fill-opacity="1"><g transform="translate(53.049318, 13.298845)"><g/></g></g><g fill="#3d3b3a" fill-opacity="1"><g transform="translate(57.110552, 13.298845)"><g><path d="M 3.546875 0.140625 C 2.859375 0.140625 2.273438 0.0390625 1.796875 -0.15625 C 1.328125 -0.363281 0.972656 -0.632812 0.734375 -0.96875 C 0.503906 -1.3125 0.390625 -1.691406 0.390625 -2.109375 C 0.390625 -2.515625 0.503906 -2.882812 0.734375 -3.21875 C 0.972656 -3.5625 1.3125 -3.863281 1.75 -4.125 C 2.195312 -4.382812 2.726562 -4.59375 3.34375 -4.75 C 3.851562 -5.050781 4.242188 -5.332031 4.515625 -5.59375 C 4.796875 -5.851562 4.988281 -6.113281 5.09375 -6.375 C 5.195312 -6.632812 5.25 -6.929688 5.25 -7.265625 C 5.25 -7.597656 5.175781 -7.847656 5.03125 -8.015625 C 4.882812 -8.179688 4.703125 -8.265625 4.484375 -8.265625 C 4.234375 -8.265625 4.019531 -8.164062 3.84375 -7.96875 C 3.675781 -7.769531 3.59375 -7.484375 3.59375 -7.109375 C 3.59375 -6.898438 3.617188 -6.679688 3.671875 -6.453125 C 3.722656 -6.234375 3.816406 -5.984375 3.953125 -5.703125 C 4.097656 -5.429688 4.296875 -5.113281 4.546875 -4.75 C 4.796875 -4.382812 5.117188 -3.953125 5.515625 -3.453125 C 5.960938 -2.898438 6.363281 -2.445312 6.71875 -2.09375 C 7.070312 -1.738281 7.425781 -1.476562 7.78125 -1.3125 C 8.132812 -1.15625 8.515625 -1.078125 8.921875 -1.078125 C 9.148438 -1.078125 9.382812 -1.113281 9.625 -1.1875 C 9.863281 -1.269531 10.082031 -1.398438 10.28125 -1.578125 L 10.734375 -1.078125 C 10.460938 -0.691406 10.109375 -0.390625 9.671875 -0.171875 C 9.234375 0.0351562 8.757812 0.140625 8.25 0.140625 C 7.601562 0.140625 7.019531 0.0234375 6.5 -0.203125 C 5.988281 -0.429688 5.503906 -0.765625 5.046875 -1.203125 C 4.597656 -1.648438 4.132812 -2.191406 3.65625 -2.828125 C 3.226562 -3.410156 2.882812 -3.914062 2.625 -4.34375 C 2.363281 -4.769531 2.179688 -5.15625 2.078125 -5.5 C 1.972656 -5.84375 1.921875 -6.164062 1.921875 -6.46875 C 1.921875 -6.988281 2.035156 -7.441406 2.265625 -7.828125 C 2.503906 -8.222656 2.820312 -8.523438 3.21875 -8.734375 C 3.625 -8.953125 4.078125 -9.0625 4.578125 -9.0625 C 5.265625 -9.0625 5.796875 -8.890625 6.171875 -8.546875 C 6.554688 -8.210938 6.75 -7.75 6.75 -7.15625 C 6.75 -6.769531 6.644531 -6.410156 6.4375 -6.078125 C 6.238281 -5.742188 5.929688 -5.425781 5.515625 -5.125 C 5.109375 -4.832031 4.585938 -4.550781 3.953125 -4.28125 C 3.359375 -4.007812 2.9375 -3.71875 2.6875 -3.40625 C 2.445312 -3.09375 2.328125 -2.753906 2.328125 -2.390625 C 2.328125 -2.140625 2.394531 -1.910156 2.53125 -1.703125 C 2.664062 -1.492188 2.863281 -1.320312 3.125 -1.1875 C 3.382812 -1.0625 3.726562 -1 4.15625 -1 C 4.707031 -1 5.203125 -1.097656 5.640625 -1.296875 C 6.078125 -1.492188 6.457031 -1.796875 6.78125 -2.203125 C 7.101562 -2.617188 7.382812 -3.160156 7.625 -3.828125 L 6.671875 -3.96875 L 6.71875 -4.640625 L 9.859375 -4.65625 L 9.90625 -3.96875 L 8.953125 -3.828125 C 8.535156 -2.953125 8.054688 -2.21875 7.515625 -1.625 C 6.972656 -1.039062 6.367188 -0.597656 5.703125 -0.296875 C 5.046875 -0.00390625 4.328125 0.140625 3.546875 0.140625 Z M 3.546875 0.140625 "/></g></g></g><g fill="#3d3b3a" fill-opacity="1"><g transform="translate(0.707869, 26.845215)"><g><path d="M 0.65625 -7.96875 L 3.5 -7.96875 L 6.328125 -1.953125 L 5.9375 -1.953125 L 8.484375 -7.96875 L 11.359375 -7.96875 L 11.390625 -7.28125 L 10.53125 -7.078125 C 10.519531 -6.953125 10.519531 -6.742188 10.53125 -6.453125 C 10.539062 -6.171875 10.546875 -5.8125 10.546875 -5.375 L 10.640625 -3 C 10.648438 -2.613281 10.664062 -2.269531 10.6875 -1.96875 C 10.707031 -1.675781 10.722656 -1.4375 10.734375 -1.25 C 10.742188 -1.0625 10.753906 -0.941406 10.765625 -0.890625 L 11.640625 -0.671875 L 11.59375 0 L 7.90625 0 L 7.875 -0.671875 L 8.734375 -0.890625 C 8.742188 -0.941406 8.75 -1.050781 8.75 -1.21875 C 8.757812 -1.394531 8.765625 -1.628906 8.765625 -1.921875 C 8.765625 -2.222656 8.757812 -2.578125 8.75 -2.984375 L 8.703125 -7.5625 L 9.328125 -7.5625 L 6.109375 0.046875 L 5.25 0.046875 L 1.625 -7.5625 L 2.484375 -7.5625 L 2.5 -2.90625 C 2.5 -2.207031 2.5 -1.710938 2.5 -1.421875 C 2.507812 -1.128906 2.519531 -0.953125 2.53125 -0.890625 L 3.46875 -0.671875 L 3.4375 0 L 0.46875 0 L 0.421875 -0.671875 L 1.375 -0.890625 C 1.382812 -0.953125 1.390625 -1.078125 1.390625 -1.265625 C 1.390625 -1.460938 1.394531 -1.695312 1.40625 -1.96875 C 1.414062 -2.238281 1.421875 -2.519531 1.421875 -2.8125 L 1.46875 -5.34375 C 1.476562 -5.820312 1.476562 -6.195312 1.46875 -6.46875 C 1.46875 -6.75 1.46875 -6.945312 1.46875 -7.0625 L 0.609375 -7.28125 Z M 0.65625 -7.96875 "/></g></g></g><g fill="#3d3b3a" fill-opacity="1"><g transform="translate(14.181671, 26.845215)"><g><path d="M 0.484375 -7.96875 L 4.125 -7.96875 L 4.171875 -7.28125 L 3.296875 -7.046875 C 3.285156 -6.960938 3.273438 -6.820312 3.265625 -6.625 C 3.253906 -6.425781 3.242188 -6.1875 3.234375 -5.90625 C 3.234375 -5.632812 3.234375 -5.320312 3.234375 -4.96875 L 3.234375 -3.5625 C 3.234375 -3.039062 3.304688 -2.597656 3.453125 -2.234375 C 3.597656 -1.878906 3.816406 -1.609375 4.109375 -1.421875 C 4.398438 -1.242188 4.753906 -1.15625 5.171875 -1.15625 C 5.585938 -1.15625 5.929688 -1.242188 6.203125 -1.421875 C 6.484375 -1.597656 6.691406 -1.863281 6.828125 -2.21875 C 6.960938 -2.582031 7.03125 -3.035156 7.03125 -3.578125 L 7.03125 -4.71875 C 7.03125 -5.132812 7.023438 -5.515625 7.015625 -5.859375 C 7.003906 -6.203125 6.988281 -6.476562 6.96875 -6.6875 C 6.957031 -6.90625 6.945312 -7.023438 6.9375 -7.046875 L 5.984375 -7.28125 L 6.015625 -7.96875 L 9.046875 -7.96875 L 9.09375 -7.28125 L 8.21875 -7.046875 C 8.207031 -7.023438 8.195312 -6.90625 8.1875 -6.6875 C 8.175781 -6.476562 8.164062 -6.203125 8.15625 -5.859375 C 8.144531 -5.515625 8.140625 -5.132812 8.140625 -4.71875 L 8.140625 -3.34375 C 8.140625 -2.632812 8.007812 -2.019531 7.75 -1.5 C 7.488281 -0.976562 7.113281 -0.578125 6.625 -0.296875 C 6.144531 -0.015625 5.570312 0.125 4.90625 0.125 C 3.78125 0.125 2.910156 -0.175781 2.296875 -0.78125 C 1.691406 -1.382812 1.390625 -2.238281 1.390625 -3.34375 L 1.390625 -4.96875 C 1.390625 -5.34375 1.382812 -5.679688 1.375 -5.984375 C 1.363281 -6.296875 1.351562 -6.546875 1.34375 -6.734375 C 1.332031 -6.921875 1.320312 -7.023438 1.3125 -7.046875 L 0.453125 -7.28125 Z M 3.609375 -8.75 C 3.316406 -8.75 3.085938 -8.835938 2.921875 -9.015625 C 2.753906 -9.203125 2.671875 -9.410156 2.671875 -9.640625 C 2.671875 -9.867188 2.753906 -10.070312 2.921875 -10.25 C 3.085938 -10.425781 3.316406 -10.515625 3.609375 -10.515625 C 3.910156 -10.515625 4.140625 -10.425781 4.296875 -10.25 C 4.460938 -10.070312 4.546875 -9.867188 4.546875 -9.640625 C 4.546875 -9.410156 4.460938 -9.203125 4.296875 -9.015625 C 4.140625 -8.835938 3.910156 -8.75 3.609375 -8.75 Z M 6.703125 -8.75 C 6.398438 -8.75 6.164062 -8.835938 6 -9.015625 C 5.832031 -9.203125 5.75 -9.410156 5.75 -9.640625 C 5.75 -9.867188 5.832031 -10.070312 6 -10.25 C 6.164062 -10.425781 6.398438 -10.515625 6.703125 -10.515625 C 6.992188 -10.515625 7.21875 -10.425781 7.375 -10.25 C 7.539062 -10.070312 7.625 -9.867188 7.625 -9.640625 C 7.625 -9.410156 7.539062 -9.203125 7.375 -9.015625 C 7.21875 -8.835938 6.992188 -8.75 6.703125 -8.75 Z M 6.703125 -8.75 "/></g></g></g><g fill="#3d3b3a" fill-opacity="1"><g transform="translate(25.092107, 26.845215)"><g><path d="M 7.046875 -2.515625 L 7.046875 -4.578125 C 7.046875 -5.023438 7.039062 -5.425781 7.03125 -5.78125 C 7.03125 -6.144531 7.019531 -6.4375 7 -6.65625 C 6.988281 -6.882812 6.972656 -7.019531 6.953125 -7.0625 L 6.015625 -7.28125 L 6.046875 -7.96875 L 8.9375 -7.96875 L 8.984375 -7.28125 L 8.109375 -7.0625 C 8.097656 -7.019531 8.085938 -6.882812 8.078125 -6.65625 C 8.066406 -6.4375 8.054688 -6.144531 8.046875 -5.78125 C 8.035156 -5.425781 8.03125 -5.023438 8.03125 -4.578125 L 8.03125 -2 C 8.03125 -1.582031 8.03125 -1.210938 8.03125 -0.890625 C 8.03125 -0.566406 8.03125 -0.25 8.03125 0.0625 L 7.203125 0.0625 L 1.75 -6.234375 L 2.46875 -6.234375 L 2.46875 -3.546875 C 2.46875 -3.054688 2.472656 -2.625 2.484375 -2.25 C 2.492188 -1.875 2.503906 -1.566406 2.515625 -1.328125 C 2.523438 -1.097656 2.546875 -0.953125 2.578125 -0.890625 L 3.515625 -0.671875 L 3.46875 0 L 0.546875 0 L 0.5 -0.671875 L 1.359375 -0.890625 C 1.378906 -0.953125 1.394531 -1.101562 1.40625 -1.34375 C 1.414062 -1.582031 1.425781 -1.894531 1.4375 -2.28125 C 1.445312 -2.664062 1.453125 -3.085938 1.453125 -3.546875 L 1.453125 -5.34375 C 1.453125 -5.582031 1.441406 -5.820312 1.421875 -6.0625 C 1.410156 -6.3125 1.398438 -6.523438 1.390625 -6.703125 C 1.378906 -6.890625 1.367188 -7.007812 1.359375 -7.0625 L 0.5 -7.28125 L 0.546875 -7.96875 L 2.6875 -7.96875 L 7.59375 -2.515625 Z M 7.046875 -2.515625 "/></g></g></g><g fill="#3d3b3a" fill-opacity="1"><g transform="translate(35.948292, 26.845215)"><g><path d="M 7.046875 -2.515625 L 7.046875 -4.578125 C 7.046875 -5.023438 7.039062 -5.425781 7.03125 -5.78125 C 7.03125 -6.144531 7.019531 -6.4375 7 -6.65625 C 6.988281 -6.882812 6.972656 -7.019531 6.953125 -7.0625 L 6.015625 -7.28125 L 6.046875 -7.96875 L 8.9375 -7.96875 L 8.984375 -7.28125 L 8.109375 -7.0625 C 8.097656 -7.019531 8.085938 -6.882812 8.078125 -6.65625 C 8.066406 -6.4375 8.054688 -6.144531 8.046875 -5.78125 C 8.035156 -5.425781 8.03125 -5.023438 8.03125 -4.578125 L 8.03125 -2 C 8.03125 -1.582031 8.03125 -1.210938 8.03125 -0.890625 C 8.03125 -0.566406 8.03125 -0.25 8.03125 0.0625 L 7.203125 0.0625 L 1.75 -6.234375 L 2.46875 -6.234375 L 2.46875 -3.546875 C 2.46875 -3.054688 2.472656 -2.625 2.484375 -2.25 C 2.492188 -1.875 2.503906 -1.566406 2.515625 -1.328125 C 2.523438 -1.097656 2.546875 -0.953125 2.578125 -0.890625 L 3.515625 -0.671875 L 3.46875 0 L 0.546875 0 L 0.5 -0.671875 L 1.359375 -0.890625 C 1.378906 -0.953125 1.394531 -1.101562 1.40625 -1.34375 C 1.414062 -1.582031 1.425781 -1.894531 1.4375 -2.28125 C 1.445312 -2.664062 1.453125 -3.085938 1.453125 -3.546875 L 1.453125 -5.34375 C 1.453125 -5.582031 1.441406 -5.820312 1.421875 -6.0625 C 1.410156 -6.3125 1.398438 -6.523438 1.390625 -6.703125 C 1.378906 -6.890625 1.367188 -7.007812 1.359375 -7.0625 L 0.5 -7.28125 L 0.546875 -7.96875 L 2.6875 -7.96875 L 7.59375 -2.515625 Z M 7.046875 -2.515625 "/></g></g></g><g fill="#3d3b3a" fill-opacity="1"><g transform="translate(46.804477, 26.845215)"><g><path d="M 0.515625 0 L 0.46875 -0.671875 L 1.328125 -0.890625 C 1.347656 -0.941406 1.363281 -1.0625 1.375 -1.25 C 1.382812 -1.4375 1.394531 -1.679688 1.40625 -1.984375 C 1.414062 -2.285156 1.421875 -2.617188 1.421875 -2.984375 L 1.421875 -4.96875 C 1.421875 -5.34375 1.414062 -5.679688 1.40625 -5.984375 C 1.394531 -6.285156 1.382812 -6.535156 1.375 -6.734375 C 1.363281 -6.929688 1.347656 -7.039062 1.328125 -7.0625 L 0.46875 -7.28125 L 0.515625 -7.96875 L 4.171875 -7.96875 L 4.203125 -7.28125 L 3.34375 -7.0625 C 3.320312 -7.03125 3.300781 -6.914062 3.28125 -6.71875 C 3.269531 -6.53125 3.257812 -6.28125 3.25 -5.96875 C 3.25 -5.664062 3.25 -5.332031 3.25 -4.96875 L 3.25 -2.984375 C 3.25 -2.628906 3.25 -2.300781 3.25 -2 C 3.257812 -1.707031 3.269531 -1.460938 3.28125 -1.265625 C 3.300781 -1.078125 3.320312 -0.953125 3.34375 -0.890625 L 4.203125 -0.671875 L 4.171875 0 Z M 0.515625 0 "/></g></g></g><g fill="#3d3b3a" fill-opacity="1"><g transform="translate(52.873002, 26.845215)"><g><path d="M 7.046875 -2.515625 L 7.046875 -4.578125 C 7.046875 -5.023438 7.039062 -5.425781 7.03125 -5.78125 C 7.03125 -6.144531 7.019531 -6.4375 7 -6.65625 C 6.988281 -6.882812 6.972656 -7.019531 6.953125 -7.0625 L 6.015625 -7.28125 L 6.046875 -7.96875 L 8.9375 -7.96875 L 8.984375 -7.28125 L 8.109375 -7.0625 C 8.097656 -7.019531 8.085938 -6.882812 8.078125 -6.65625 C 8.066406 -6.4375 8.054688 -6.144531 8.046875 -5.78125 C 8.035156 -5.425781 8.03125 -5.023438 8.03125 -4.578125 L 8.03125 -2 C 8.03125 -1.582031 8.03125 -1.210938 8.03125 -0.890625 C 8.03125 -0.566406 8.03125 -0.25 8.03125 0.0625 L 7.203125 0.0625 L 1.75 -6.234375 L 2.46875 -6.234375 L 2.46875 -3.546875 C 2.46875 -3.054688 2.472656 -2.625 2.484375 -2.25 C 2.492188 -1.875 2.503906 -1.566406 2.515625 -1.328125 C 2.523438 -1.097656 2.546875 -0.953125 2.578125 -0.890625 L 3.515625 -0.671875 L 3.46875 0 L 0.546875 0 L 0.5 -0.671875 L 1.359375 -0.890625 C 1.378906 -0.953125 1.394531 -1.101562 1.40625 -1.34375 C 1.414062 -1.582031 1.425781 -1.894531 1.4375 -2.28125 C 1.445312 -2.664062 1.453125 -3.085938 1.453125 -3.546875 L 1.453125 -5.34375 C 1.453125 -5.582031 1.441406 -5.820312 1.421875 -6.0625 C 1.410156 -6.3125 1.398438 -6.523438 1.390625 -6.703125 C 1.378906 -6.890625 1.367188 -7.007812 1.359375 -7.0625 L 0.5 -7.28125 L 0.546875 -7.96875 L 2.6875 -7.96875 L 7.59375 -2.515625 Z M 7.046875 -2.515625 "/></g></g></g><g fill="#3d3b3a" fill-opacity="1"><g transform="translate(63.729187, 26.845215)"><g><path d="M 5.03125 0.125 C 4.164062 0.125 3.394531 -0.03125 2.71875 -0.34375 C 2.050781 -0.65625 1.53125 -1.101562 1.15625 -1.6875 C 0.78125 -2.269531 0.59375 -2.972656 0.59375 -3.796875 C 0.59375 -4.460938 0.707031 -5.0625 0.9375 -5.59375 C 1.175781 -6.125 1.507812 -6.570312 1.9375 -6.9375 C 2.363281 -7.3125 2.867188 -7.59375 3.453125 -7.78125 C 4.035156 -7.976562 4.675781 -8.078125 5.375 -8.078125 C 5.789062 -8.078125 6.203125 -8.035156 6.609375 -7.953125 C 7.023438 -7.867188 7.367188 -7.757812 7.640625 -7.625 L 7.703125 -5.703125 L 6.84375 -5.671875 L 6.4375 -6.921875 C 6.25 -7.015625 6.046875 -7.082031 5.828125 -7.125 C 5.609375 -7.164062 5.410156 -7.1875 5.234375 -7.1875 C 4.710938 -7.1875 4.265625 -7.0625 3.890625 -6.8125 C 3.515625 -6.570312 3.226562 -6.222656 3.03125 -5.765625 C 2.84375 -5.316406 2.75 -4.785156 2.75 -4.171875 C 2.75 -3.484375 2.863281 -2.882812 3.09375 -2.375 C 3.332031 -1.863281 3.648438 -1.472656 4.046875 -1.203125 C 4.453125 -0.929688 4.894531 -0.796875 5.375 -0.796875 C 5.507812 -0.796875 5.664062 -0.8125 5.84375 -0.84375 C 6.019531 -0.882812 6.175781 -0.945312 6.3125 -1.03125 L 6.015625 -0.296875 L 6.015625 -1.734375 C 6.015625 -1.921875 6.007812 -2.125 6 -2.34375 C 6 -2.5625 5.988281 -2.726562 5.96875 -2.84375 L 5 -3.046875 L 5.046875 -3.75 L 8.453125 -3.75 L 8.484375 -3.078125 L 7.8125 -2.859375 C 7.800781 -2.773438 7.796875 -2.632812 7.796875 -2.4375 C 7.804688 -2.25 7.8125 -2.050781 7.8125 -1.84375 C 7.8125 -1.6875 7.816406 -1.507812 7.828125 -1.3125 C 7.835938 -1.113281 7.847656 -0.878906 7.859375 -0.609375 C 7.453125 -0.367188 7.003906 -0.1875 6.515625 -0.0625 C 6.023438 0.0625 5.53125 0.125 5.03125 0.125 Z M 5.03125 0.125 "/></g></g></g><g fill="#3d3b3a" fill-opacity="1"><g transform="translate(74.069987, 26.845215)"><g><path d="M 5.375 0 L 5.328125 -0.671875 L 6.171875 -0.890625 C 6.191406 -0.953125 6.207031 -1.078125 6.21875 -1.265625 C 6.226562 -1.460938 6.238281 -1.707031 6.25 -2 C 6.257812 -2.300781 6.265625 -2.628906 6.265625 -2.984375 L 6.265625 -4.96875 C 6.265625 -5.332031 6.257812 -5.664062 6.25 -5.96875 C 6.238281 -6.28125 6.226562 -6.53125 6.21875 -6.71875 C 6.207031 -6.914062 6.191406 -7.03125 6.171875 -7.0625 L 5.328125 -7.28125 L 5.375 -7.96875 L 9.015625 -7.96875 L 9.0625 -7.28125 L 8.203125 -7.0625 C 8.191406 -7.03125 8.175781 -6.90625 8.15625 -6.6875 C 8.144531 -6.476562 8.128906 -6.21875 8.109375 -5.90625 C 8.097656 -5.601562 8.09375 -5.289062 8.09375 -4.96875 L 8.09375 -2.984375 C 8.09375 -2.671875 8.097656 -2.359375 8.109375 -2.046875 C 8.128906 -1.742188 8.144531 -1.488281 8.15625 -1.28125 C 8.175781 -1.082031 8.191406 -0.953125 8.203125 -0.890625 L 9.0625 -0.671875 L 9.015625 0 Z M 0.515625 0 L 0.46875 -0.671875 L 1.328125 -0.890625 C 1.347656 -0.941406 1.363281 -1.0625 1.375 -1.25 C 1.382812 -1.4375 1.394531 -1.679688 1.40625 -1.984375 C 1.414062 -2.285156 1.421875 -2.617188 1.421875 -2.984375 L 1.421875 -4.96875 C 1.421875 -5.34375 1.414062 -5.679688 1.40625 -5.984375 C 1.394531 -6.285156 1.382812 -6.535156 1.375 -6.734375 C 1.363281 -6.929688 1.347656 -7.039062 1.328125 -7.0625 L 0.46875 -7.28125 L 0.515625 -7.96875 L 4.140625 -7.96875 L 4.171875 -7.28125 L 3.34375 -7.0625 C 3.320312 -7.03125 3.300781 -6.914062 3.28125 -6.71875 C 3.269531 -6.53125 3.257812 -6.28125 3.25 -5.96875 C 3.25 -5.664062 3.25 -5.332031 3.25 -4.96875 L 3.25 -2.984375 C 3.25 -2.628906 3.25 -2.300781 3.25 -2 C 3.257812 -1.707031 3.269531 -1.460938 3.28125 -1.265625 C 3.300781 -1.078125 3.320312 -0.953125 3.34375 -0.890625 L 4.171875 -0.671875 L 4.140625 0 Z M 2.953125 -3.546875 L 2.953125 -4.578125 C 3.171875 -4.554688 3.421875 -4.539062 3.703125 -4.53125 C 3.984375 -4.519531 4.335938 -4.515625 4.765625 -4.515625 C 5.191406 -4.515625 5.539062 -4.519531 5.8125 -4.53125 C 6.09375 -4.539062 6.34375 -4.554688 6.5625 -4.578125 L 6.5625 -3.546875 C 6.375 -3.554688 6.140625 -3.566406 5.859375 -3.578125 C 5.578125 -3.597656 5.210938 -3.609375 4.765625 -3.609375 C 4.304688 -3.609375 3.9375 -3.597656 3.65625 -3.578125 C 3.375 -3.566406 3.140625 -3.554688 2.953125 -3.546875 Z M 2.953125 -3.546875 "/></g></g></g><g fill="#3d3b3a" fill-opacity="1"><g transform="translate(84.993987, 26.845215)"><g><path d="M 4.890625 0.125 C 4.054688 0.125 3.316406 -0.046875 2.671875 -0.390625 C 2.023438 -0.734375 1.515625 -1.207031 1.140625 -1.8125 C 0.773438 -2.414062 0.59375 -3.101562 0.59375 -3.875 C 0.59375 -4.6875 0.773438 -5.410156 1.140625 -6.046875 C 1.515625 -6.679688 2.023438 -7.175781 2.671875 -7.53125 C 3.328125 -7.894531 4.066406 -8.078125 4.890625 -8.078125 C 5.703125 -8.078125 6.414062 -7.90625 7.03125 -7.5625 C 7.644531 -7.226562 8.125 -6.765625 8.46875 -6.171875 C 8.820312 -5.578125 9 -4.878906 9 -4.078125 C 9 -3.378906 8.867188 -2.769531 8.609375 -2.25 C 8.359375 -1.726562 8.023438 -1.289062 7.609375 -0.9375 C 7.203125 -0.582031 6.757812 -0.316406 6.28125 -0.140625 C 5.800781 0.0351562 5.335938 0.125 4.890625 0.125 Z M 4.984375 -0.890625 C 5.398438 -0.890625 5.75 -1 6.03125 -1.21875 C 6.3125 -1.445312 6.519531 -1.769531 6.65625 -2.1875 C 6.800781 -2.613281 6.875 -3.132812 6.875 -3.75 C 6.875 -4.4375 6.78125 -5.035156 6.59375 -5.546875 C 6.414062 -6.066406 6.171875 -6.46875 5.859375 -6.75 C 5.546875 -7.039062 5.171875 -7.1875 4.734375 -7.1875 C 4.109375 -7.1875 3.617188 -6.925781 3.265625 -6.40625 C 2.910156 -5.894531 2.734375 -5.179688 2.734375 -4.265625 C 2.734375 -3.597656 2.832031 -3.007812 3.03125 -2.5 C 3.226562 -2 3.492188 -1.601562 3.828125 -1.3125 C 4.160156 -1.03125 4.546875 -0.890625 4.984375 -0.890625 Z M 4.984375 -0.890625 "/></g></g></g><g fill="#3d3b3a" fill-opacity="1"><g transform="translate(95.9858, 26.845215)"><g><path d="M 0.5625 0 L 0.53125 -0.671875 L 1.34375 -0.890625 C 1.363281 -0.929688 1.375 -1.046875 1.375 -1.234375 C 1.382812 -1.421875 1.394531 -1.664062 1.40625 -1.96875 C 1.414062 -2.269531 1.421875 -2.609375 1.421875 -2.984375 L 1.4375 -4.984375 C 1.4375 -5.359375 1.429688 -5.695312 1.421875 -6 C 1.410156 -6.300781 1.398438 -6.546875 1.390625 -6.734375 C 1.390625 -6.921875 1.378906 -7.023438 1.359375 -7.046875 L 0.5 -7.28125 L 0.546875 -7.96875 L 4.578125 -7.96875 C 4.773438 -7.96875 5.003906 -7.96875 5.265625 -7.96875 C 5.523438 -7.96875 5.78125 -7.972656 6.03125 -7.984375 C 6.289062 -8.003906 6.492188 -8.019531 6.640625 -8.03125 L 7.03125 -6.015625 L 6.234375 -5.921875 L 5.703125 -7.109375 C 5.597656 -7.140625 5.5 -7.15625 5.40625 -7.15625 C 5.3125 -7.164062 5.207031 -7.171875 5.09375 -7.171875 L 4.078125 -7.171875 C 3.929688 -7.171875 3.78125 -7.164062 3.625 -7.15625 C 3.476562 -7.144531 3.351562 -7.128906 3.25 -7.109375 C 3.25 -7.066406 3.242188 -7.015625 3.234375 -6.953125 C 3.234375 -6.890625 3.234375 -6.800781 3.234375 -6.6875 C 3.234375 -6.582031 3.234375 -6.429688 3.234375 -6.234375 C 3.234375 -6.035156 3.234375 -5.773438 3.234375 -5.453125 L 3.25 -2.3125 C 3.25 -2.144531 3.253906 -1.957031 3.265625 -1.75 C 3.273438 -1.539062 3.285156 -1.351562 3.296875 -1.1875 C 3.316406 -1.03125 3.332031 -0.929688 3.34375 -0.890625 L 4.4375 -0.703125 L 4.390625 0 Z M 5.21875 -2.5625 L 5.09375 -3.53125 C 4.976562 -3.539062 4.851562 -3.550781 4.71875 -3.5625 C 4.582031 -3.570312 4.445312 -3.578125 4.3125 -3.578125 L 3.546875 -3.578125 C 3.378906 -3.578125 3.226562 -3.570312 3.09375 -3.5625 C 2.96875 -3.550781 2.847656 -3.539062 2.734375 -3.53125 L 2.734375 -4.484375 C 2.835938 -4.472656 2.957031 -4.460938 3.09375 -4.453125 C 3.238281 -4.453125 3.390625 -4.453125 3.546875 -4.453125 L 4.3125 -4.453125 C 4.488281 -4.453125 4.644531 -4.453125 4.78125 -4.453125 C 4.925781 -4.460938 5.03125 -4.46875 5.09375 -4.46875 L 5.21875 -5.375 L 6.015625 -5.375 L 6.015625 -2.5625 Z M 5.21875 -2.5625 "/></g></g></g><g fill="#3d3b3a" fill-opacity="1"><g transform="translate(104.685503, 26.845215)"><g><path d="M 0.5625 0 L 0.53125 -0.671875 L 1.34375 -0.890625 C 1.363281 -0.929688 1.375 -1.046875 1.375 -1.234375 C 1.382812 -1.421875 1.394531 -1.664062 1.40625 -1.96875 C 1.414062 -2.269531 1.421875 -2.609375 1.421875 -2.984375 L 1.4375 -4.984375 C 1.4375 -5.359375 1.429688 -5.695312 1.421875 -6 C 1.410156 -6.300781 1.398438 -6.546875 1.390625 -6.734375 C 1.390625 -6.921875 1.378906 -7.023438 1.359375 -7.046875 L 0.5 -7.28125 L 0.546875 -7.96875 L 4.578125 -7.96875 C 4.773438 -7.96875 5.003906 -7.96875 5.265625 -7.96875 C 5.523438 -7.96875 5.78125 -7.972656 6.03125 -7.984375 C 6.289062 -8.003906 6.492188 -8.019531 6.640625 -8.03125 L 7.03125 -6.015625 L 6.234375 -5.921875 L 5.703125 -7.109375 C 5.597656 -7.140625 5.5 -7.15625 5.40625 -7.15625 C 5.3125 -7.164062 5.207031 -7.171875 5.09375 -7.171875 L 4.078125 -7.171875 C 3.929688 -7.171875 3.78125 -7.164062 3.625 -7.15625 C 3.476562 -7.144531 3.351562 -7.128906 3.25 -7.109375 C 3.25 -7.066406 3.242188 -7.015625 3.234375 -6.953125 C 3.234375 -6.890625 3.234375 -6.800781 3.234375 -6.6875 C 3.234375 -6.582031 3.234375 -6.429688 3.234375 -6.234375 C 3.234375 -6.035156 3.234375 -5.773438 3.234375 -5.453125 L 3.25 -2.3125 C 3.25 -2.144531 3.253906 -1.957031 3.265625 -1.75 C 3.273438 -1.539062 3.285156 -1.351562 3.296875 -1.1875 C 3.316406 -1.03125 3.332031 -0.929688 3.34375 -0.890625 L 4.4375 -0.703125 L 4.390625 0 Z M 5.21875 -2.5625 L 5.09375 -3.53125 C 4.976562 -3.539062 4.851562 -3.550781 4.71875 -3.5625 C 4.582031 -3.570312 4.445312 -3.578125 4.3125 -3.578125 L 3.546875 -3.578125 C 3.378906 -3.578125 3.226562 -3.570312 3.09375 -3.5625 C 2.96875 -3.550781 2.847656 -3.539062 2.734375 -3.53125 L 2.734375 -4.484375 C 2.835938 -4.472656 2.957031 -4.460938 3.09375 -4.453125 C 3.238281 -4.453125 3.390625 -4.453125 3.546875 -4.453125 L 4.3125 -4.453125 C 4.488281 -4.453125 4.644531 -4.453125 4.78125 -4.453125 C 4.925781 -4.460938 5.03125 -4.46875 5.09375 -4.46875 L 5.21875 -5.375 L 6.015625 -5.375 L 6.015625 -2.5625 Z M 5.21875 -2.5625 "/></g></g></g></g></g><g transform="matrix(1, 0, 0, 1, 63, 54)"><g clip-path="url(#8f3a0392ba)"><g fill="#3d3b3a" fill-opacity="1"><g transform="translate(1.164761, 6.918156)"><g><path d="M -0.03125 0 L 0.015625 -0.328125 L 0.46875 -0.453125 C 0.488281 -0.492188 0.507812 -0.554688 0.53125 -0.640625 C 0.550781 -0.734375 0.578125 -0.851562 0.609375 -1 C 0.640625 -1.144531 0.675781 -1.304688 0.71875 -1.484375 L 0.9375 -2.5 C 1 -2.78125 1.046875 -3.003906 1.078125 -3.171875 C 1.109375 -3.347656 1.125 -3.46875 1.125 -3.53125 L 0.734375 -3.640625 L 0.828125 -3.984375 L 2.46875 -3.984375 C 2.9375 -3.984375 3.285156 -3.910156 3.515625 -3.765625 C 3.742188 -3.628906 3.859375 -3.414062 3.859375 -3.125 C 3.859375 -2.882812 3.78125 -2.664062 3.625 -2.46875 C 3.476562 -2.269531 3.269531 -2.109375 3 -1.984375 C 2.738281 -1.859375 2.429688 -1.796875 2.078125 -1.796875 L 1.578125 -1.796875 L 1.671875 -2.1875 L 2 -2.1875 C 2.28125 -2.1875 2.5 -2.269531 2.65625 -2.4375 C 2.820312 -2.613281 2.90625 -2.832031 2.90625 -3.09375 C 2.90625 -3.257812 2.851562 -3.382812 2.75 -3.46875 C 2.65625 -3.5625 2.5 -3.609375 2.28125 -3.609375 L 2.09375 -3.609375 C 2.082031 -3.585938 2.066406 -3.546875 2.046875 -3.484375 C 2.035156 -3.421875 2.015625 -3.335938 1.984375 -3.234375 C 1.960938 -3.128906 1.9375 -3.015625 1.90625 -2.890625 C 1.882812 -2.765625 1.859375 -2.632812 1.828125 -2.5 L 1.625 -1.484375 C 1.59375 -1.390625 1.566406 -1.285156 1.546875 -1.171875 C 1.535156 -1.066406 1.519531 -0.960938 1.5 -0.859375 C 1.476562 -0.765625 1.460938 -0.679688 1.453125 -0.609375 C 1.441406 -0.535156 1.429688 -0.484375 1.421875 -0.453125 L 1.78125 -0.328125 L 1.6875 0 Z M 3.453125 0.078125 C 3.191406 0.078125 2.972656 0.0351562 2.796875 -0.046875 C 2.628906 -0.128906 2.488281 -0.257812 2.375 -0.4375 C 2.269531 -0.625 2.179688 -0.851562 2.109375 -1.125 L 1.921875 -1.90625 L 2.65625 -2.078125 L 3.21875 -0.96875 C 3.289062 -0.832031 3.359375 -0.71875 3.421875 -0.625 C 3.492188 -0.53125 3.578125 -0.453125 3.671875 -0.390625 C 3.765625 -0.335938 3.867188 -0.296875 3.984375 -0.265625 L 3.90625 0.046875 C 3.832031 0.0546875 3.757812 0.0625 3.6875 0.0625 C 3.613281 0.0703125 3.535156 0.078125 3.453125 0.078125 Z M 3.453125 0.078125 "/></g></g></g><g fill="#3d3b3a" fill-opacity="1"><g transform="translate(7.487194, 6.918156)"><g><path d="M 1.296875 0.046875 C 0.953125 0.046875 0.675781 -0.046875 0.46875 -0.234375 C 0.269531 -0.421875 0.171875 -0.679688 0.171875 -1.015625 C 0.171875 -1.285156 0.21875 -1.539062 0.3125 -1.78125 C 0.414062 -2.019531 0.550781 -2.234375 0.71875 -2.421875 C 0.882812 -2.609375 1.078125 -2.753906 1.296875 -2.859375 C 1.515625 -2.972656 1.75 -3.03125 2 -3.03125 C 2.257812 -3.03125 2.457031 -2.972656 2.59375 -2.859375 C 2.726562 -2.753906 2.796875 -2.617188 2.796875 -2.453125 C 2.796875 -2.359375 2.769531 -2.257812 2.71875 -2.15625 C 2.664062 -2.050781 2.570312 -1.941406 2.4375 -1.828125 C 2.3125 -1.722656 2.128906 -1.609375 1.890625 -1.484375 C 1.660156 -1.359375 1.359375 -1.234375 0.984375 -1.109375 L 0.984375 -1.46875 C 1.234375 -1.5625 1.429688 -1.660156 1.578125 -1.765625 C 1.722656 -1.867188 1.820312 -1.972656 1.875 -2.078125 C 1.9375 -2.191406 1.96875 -2.304688 1.96875 -2.421875 C 1.96875 -2.492188 1.945312 -2.550781 1.90625 -2.59375 C 1.863281 -2.632812 1.8125 -2.65625 1.75 -2.65625 C 1.644531 -2.65625 1.539062 -2.59375 1.4375 -2.46875 C 1.332031 -2.351562 1.242188 -2.1875 1.171875 -1.96875 C 1.109375 -1.75 1.078125 -1.492188 1.078125 -1.203125 C 1.078125 -0.992188 1.125 -0.835938 1.21875 -0.734375 C 1.3125 -0.628906 1.429688 -0.578125 1.578125 -0.578125 C 1.691406 -0.578125 1.828125 -0.609375 1.984375 -0.671875 C 2.148438 -0.742188 2.304688 -0.867188 2.453125 -1.046875 L 2.65625 -0.75 C 2.457031 -0.46875 2.234375 -0.265625 1.984375 -0.140625 C 1.734375 -0.015625 1.503906 0.046875 1.296875 0.046875 Z M 1.296875 0.046875 "/></g></g></g><g fill="#3d3b3a" fill-opacity="1"><g transform="translate(12.433005, 6.918156)"><g><path d="M 0.78125 0.046875 C 0.59375 0.046875 0.4375 -0.0195312 0.3125 -0.15625 C 0.195312 -0.300781 0.140625 -0.488281 0.140625 -0.71875 C 0.140625 -1.039062 0.195312 -1.34375 0.3125 -1.625 C 0.4375 -1.90625 0.59375 -2.148438 0.78125 -2.359375 C 0.976562 -2.566406 1.191406 -2.726562 1.421875 -2.84375 C 1.660156 -2.96875 1.890625 -3.03125 2.109375 -3.03125 C 2.253906 -3.03125 2.375 -2.992188 2.46875 -2.921875 C 2.570312 -2.847656 2.675781 -2.742188 2.78125 -2.609375 L 2.546875 -2.390625 C 2.472656 -2.453125 2.390625 -2.5 2.296875 -2.53125 C 2.210938 -2.5625 2.125 -2.578125 2.03125 -2.578125 C 1.894531 -2.578125 1.769531 -2.535156 1.65625 -2.453125 C 1.539062 -2.367188 1.4375 -2.25 1.34375 -2.09375 C 1.257812 -1.945312 1.191406 -1.773438 1.140625 -1.578125 C 1.097656 -1.378906 1.078125 -1.160156 1.078125 -0.921875 C 1.078125 -0.816406 1.085938 -0.738281 1.109375 -0.6875 C 1.128906 -0.632812 1.164062 -0.609375 1.21875 -0.609375 C 1.269531 -0.609375 1.347656 -0.664062 1.453125 -0.78125 C 1.566406 -0.90625 1.6875 -1.066406 1.8125 -1.265625 C 1.945312 -1.472656 2.078125 -1.695312 2.203125 -1.9375 C 2.328125 -2.1875 2.425781 -2.429688 2.5 -2.671875 L 2.609375 -2.75 L 2.84375 -2.96875 L 3.421875 -2.96875 C 3.347656 -2.75 3.273438 -2.515625 3.203125 -2.265625 C 3.140625 -2.023438 3.078125 -1.789062 3.015625 -1.5625 C 2.960938 -1.332031 2.914062 -1.128906 2.875 -0.953125 C 2.84375 -0.773438 2.828125 -0.640625 2.828125 -0.546875 C 2.921875 -0.597656 3.007812 -0.664062 3.09375 -0.75 C 3.1875 -0.84375 3.273438 -0.945312 3.359375 -1.0625 L 3.578125 -0.8125 C 3.460938 -0.65625 3.332031 -0.507812 3.1875 -0.375 C 3.039062 -0.25 2.890625 -0.144531 2.734375 -0.0625 C 2.585938 0.0078125 2.445312 0.046875 2.3125 0.046875 C 2.207031 0.046875 2.125 0.015625 2.0625 -0.046875 C 2 -0.109375 1.96875 -0.195312 1.96875 -0.3125 C 1.96875 -0.382812 1.976562 -0.488281 2 -0.625 C 2.03125 -0.757812 2.078125 -0.9375 2.140625 -1.15625 C 2.203125 -1.375 2.28125 -1.644531 2.375 -1.96875 L 2.4375 -1.96875 C 2.300781 -1.550781 2.140625 -1.191406 1.953125 -0.890625 C 1.773438 -0.585938 1.585938 -0.351562 1.390625 -0.1875 C 1.191406 -0.03125 0.988281 0.046875 0.78125 0.046875 Z M 0.78125 0.046875 "/></g></g></g><g fill="#3d3b3a" fill-opacity="1"><g transform="translate(18.172239, 6.918156)"><g><path d="M 0.609375 0.046875 C 0.472656 0.046875 0.367188 0.015625 0.296875 -0.046875 C 0.234375 -0.109375 0.203125 -0.195312 0.203125 -0.3125 C 0.203125 -0.375 0.207031 -0.4375 0.21875 -0.5 C 0.226562 -0.570312 0.25 -0.671875 0.28125 -0.796875 C 0.3125 -0.929688 0.359375 -1.125 0.421875 -1.375 L 1.09375 -4.046875 L 0.609375 -4.125 L 0.65625 -4.390625 L 1.984375 -4.71875 L 2.140625 -4.609375 C 2.066406 -4.328125 2 -4.070312 1.9375 -3.84375 C 1.875 -3.625 1.816406 -3.421875 1.765625 -3.234375 L 1.28125 -1.375 C 1.25 -1.238281 1.21875 -1.113281 1.1875 -1 C 1.164062 -0.894531 1.148438 -0.800781 1.140625 -0.71875 C 1.128906 -0.644531 1.125 -0.585938 1.125 -0.546875 C 1.207031 -0.597656 1.289062 -0.664062 1.375 -0.75 C 1.46875 -0.84375 1.5625 -0.945312 1.65625 -1.0625 L 1.859375 -0.8125 C 1.742188 -0.65625 1.613281 -0.507812 1.46875 -0.375 C 1.332031 -0.25 1.1875 -0.144531 1.03125 -0.0625 C 0.882812 0.0078125 0.742188 0.046875 0.609375 0.046875 Z M 0.609375 0.046875 "/></g></g></g><g fill="#3d3b3a" fill-opacity="1"><g transform="translate(22.209344, 6.918156)"><g/></g></g><g fill="#3d3b3a" fill-opacity="1"><g transform="translate(25.629342, 6.918156)"><g><path d="M 3.21875 0.046875 C 3.09375 0.0351562 2.941406 0.0234375 2.765625 0.015625 C 2.597656 0.00390625 2.445312 0 2.3125 0 L -0.046875 0 L 0 -0.328125 L 0.453125 -0.453125 C 0.472656 -0.492188 0.492188 -0.554688 0.515625 -0.640625 C 0.546875 -0.734375 0.578125 -0.851562 0.609375 -1 C 0.640625 -1.144531 0.675781 -1.304688 0.71875 -1.484375 L 0.9375 -2.5 C 0.988281 -2.78125 1.03125 -3.003906 1.0625 -3.171875 C 1.101562 -3.347656 1.125 -3.46875 1.125 -3.53125 L 0.71875 -3.640625 L 0.8125 -3.984375 L 2.875 -3.984375 C 2.96875 -3.984375 3.078125 -3.984375 3.203125 -3.984375 C 3.328125 -3.984375 3.453125 -3.984375 3.578125 -3.984375 C 3.703125 -3.992188 3.804688 -4.003906 3.890625 -4.015625 L 3.828125 -3.015625 L 3.421875 -2.96875 L 3.34375 -3.5625 C 3.28125 -3.570312 3.222656 -3.578125 3.171875 -3.578125 C 3.128906 -3.578125 3.082031 -3.578125 3.03125 -3.578125 L 2.5 -3.578125 C 2.414062 -3.578125 2.332031 -3.578125 2.25 -3.578125 C 2.175781 -3.578125 2.113281 -3.570312 2.0625 -3.5625 C 2.050781 -3.53125 2.035156 -3.476562 2.015625 -3.40625 C 2.003906 -3.34375 1.988281 -3.265625 1.96875 -3.171875 C 1.945312 -3.085938 1.925781 -2.992188 1.90625 -2.890625 C 1.882812 -2.796875 1.863281 -2.707031 1.84375 -2.625 L 1.578125 -1.359375 C 1.554688 -1.253906 1.53125 -1.132812 1.5 -1 C 1.476562 -0.875 1.457031 -0.757812 1.4375 -0.65625 C 1.414062 -0.5625 1.40625 -0.492188 1.40625 -0.453125 C 1.488281 -0.441406 1.570312 -0.429688 1.65625 -0.421875 C 1.738281 -0.421875 1.847656 -0.421875 1.984375 -0.421875 L 2.359375 -0.421875 C 2.503906 -0.421875 2.609375 -0.421875 2.671875 -0.421875 C 2.734375 -0.429688 2.789062 -0.441406 2.84375 -0.453125 L 3.328125 -1.125 L 3.71875 -1.0625 Z M 2.625 -1.359375 L 2.65625 -1.8125 C 2.625 -1.820312 2.570312 -1.828125 2.5 -1.828125 C 2.4375 -1.828125 2.363281 -1.828125 2.28125 -1.828125 L 1.921875 -1.828125 C 1.835938 -1.828125 1.757812 -1.820312 1.6875 -1.8125 C 1.625 -1.8125 1.570312 -1.8125 1.53125 -1.8125 L 1.625 -2.28125 C 1.664062 -2.269531 1.71875 -2.257812 1.78125 -2.25 C 1.851562 -2.25 1.929688 -2.25 2.015625 -2.25 L 2.375 -2.25 C 2.457031 -2.25 2.53125 -2.25 2.59375 -2.25 C 2.664062 -2.257812 2.71875 -2.265625 2.75 -2.265625 L 2.90625 -2.71875 L 3.296875 -2.71875 L 3 -1.359375 Z M 2.625 -1.359375 "/></g></g></g><g fill="#3d3b3a" fill-opacity="1"><g transform="translate(31.666957, 6.918156)"><g><path d="M 0.921875 0.046875 C 0.734375 0.046875 0.566406 0.0195312 0.421875 -0.03125 C 0.273438 -0.0820312 0.164062 -0.148438 0.09375 -0.234375 C 0.0195312 -0.328125 -0.015625 -0.421875 -0.015625 -0.515625 C -0.015625 -0.609375 0 -0.691406 0.03125 -0.765625 C 0.0703125 -0.835938 0.125 -0.90625 0.1875 -0.96875 C 0.332031 -0.800781 0.488281 -0.660156 0.65625 -0.546875 C 0.820312 -0.429688 0.96875 -0.375 1.09375 -0.375 C 1.175781 -0.375 1.25 -0.394531 1.3125 -0.4375 C 1.375 -0.488281 1.40625 -0.5625 1.40625 -0.65625 C 1.40625 -0.738281 1.375 -0.816406 1.3125 -0.890625 C 1.25 -0.960938 1.117188 -1.054688 0.921875 -1.171875 C 0.785156 -1.273438 0.671875 -1.367188 0.578125 -1.453125 C 0.492188 -1.535156 0.429688 -1.617188 0.390625 -1.703125 C 0.347656 -1.785156 0.328125 -1.875 0.328125 -1.96875 C 0.328125 -2.175781 0.382812 -2.359375 0.5 -2.515625 C 0.613281 -2.671875 0.769531 -2.796875 0.96875 -2.890625 C 1.164062 -2.984375 1.378906 -3.03125 1.609375 -3.03125 C 1.765625 -3.03125 1.90625 -3.007812 2.03125 -2.96875 C 2.15625 -2.925781 2.253906 -2.867188 2.328125 -2.796875 C 2.410156 -2.722656 2.453125 -2.625 2.453125 -2.5 C 2.453125 -2.414062 2.4375 -2.335938 2.40625 -2.265625 C 2.375 -2.203125 2.332031 -2.144531 2.28125 -2.09375 C 2.125 -2.28125 1.976562 -2.414062 1.84375 -2.5 C 1.71875 -2.582031 1.597656 -2.625 1.484375 -2.625 C 1.378906 -2.625 1.289062 -2.59375 1.21875 -2.53125 C 1.15625 -2.476562 1.125 -2.40625 1.125 -2.3125 C 1.125 -2.257812 1.140625 -2.207031 1.171875 -2.15625 C 1.203125 -2.113281 1.253906 -2.0625 1.328125 -2 C 1.398438 -1.945312 1.507812 -1.867188 1.65625 -1.765625 C 1.789062 -1.671875 1.898438 -1.582031 1.984375 -1.5 C 2.066406 -1.425781 2.125 -1.347656 2.15625 -1.265625 C 2.195312 -1.191406 2.21875 -1.109375 2.21875 -1.015625 C 2.21875 -0.816406 2.160156 -0.632812 2.046875 -0.46875 C 1.929688 -0.3125 1.773438 -0.1875 1.578125 -0.09375 C 1.378906 0 1.160156 0.046875 0.921875 0.046875 Z M 0.921875 0.046875 "/></g></g></g><g fill="#3d3b3a" fill-opacity="1"><g transform="translate(36.266917, 6.918156)"><g><path d="M 2.25 -0.859375 C 2.03125 -0.546875 1.800781 -0.316406 1.5625 -0.171875 C 1.320312 -0.0234375 1.082031 0.046875 0.84375 0.046875 C 0.65625 0.046875 0.515625 0.00390625 0.421875 -0.078125 C 0.328125 -0.160156 0.28125 -0.285156 0.28125 -0.453125 C 0.28125 -0.503906 0.285156 -0.5625 0.296875 -0.625 C 0.304688 -0.695312 0.320312 -0.773438 0.34375 -0.859375 L 0.765625 -2.546875 L 0.28125 -2.546875 L 0.328125 -2.75 L 1.6875 -3.671875 L 1.890625 -3.671875 L 1.640625 -2.71875 L 1.234375 -1.03125 C 1.222656 -0.945312 1.210938 -0.882812 1.203125 -0.84375 C 1.191406 -0.800781 1.1875 -0.769531 1.1875 -0.75 C 1.1875 -0.644531 1.234375 -0.59375 1.328125 -0.59375 C 1.410156 -0.59375 1.507812 -0.628906 1.625 -0.703125 C 1.738281 -0.785156 1.878906 -0.941406 2.046875 -1.171875 Z M 1.28125 -2.546875 L 1.375 -2.953125 L 2.453125 -2.953125 L 2.375 -2.546875 Z M 1.28125 -2.546875 "/></g></g></g><g fill="#3d3b3a" fill-opacity="1"><g transform="translate(40.697343, 6.918156)"><g><path d="M 0.78125 0.046875 C 0.59375 0.046875 0.4375 -0.0195312 0.3125 -0.15625 C 0.195312 -0.300781 0.140625 -0.488281 0.140625 -0.71875 C 0.140625 -1.039062 0.195312 -1.34375 0.3125 -1.625 C 0.4375 -1.90625 0.59375 -2.148438 0.78125 -2.359375 C 0.976562 -2.566406 1.191406 -2.726562 1.421875 -2.84375 C 1.660156 -2.96875 1.890625 -3.03125 2.109375 -3.03125 C 2.253906 -3.03125 2.375 -2.992188 2.46875 -2.921875 C 2.570312 -2.847656 2.675781 -2.742188 2.78125 -2.609375 L 2.546875 -2.390625 C 2.472656 -2.453125 2.390625 -2.5 2.296875 -2.53125 C 2.210938 -2.5625 2.125 -2.578125 2.03125 -2.578125 C 1.894531 -2.578125 1.769531 -2.535156 1.65625 -2.453125 C 1.539062 -2.367188 1.4375 -2.25 1.34375 -2.09375 C 1.257812 -1.945312 1.191406 -1.773438 1.140625 -1.578125 C 1.097656 -1.378906 1.078125 -1.160156 1.078125 -0.921875 C 1.078125 -0.816406 1.085938 -0.738281 1.109375 -0.6875 C 1.128906 -0.632812 1.164062 -0.609375 1.21875 -0.609375 C 1.269531 -0.609375 1.347656 -0.664062 1.453125 -0.78125 C 1.566406 -0.90625 1.6875 -1.066406 1.8125 -1.265625 C 1.945312 -1.472656 2.078125 -1.695312 2.203125 -1.9375 C 2.328125 -2.1875 2.425781 -2.429688 2.5 -2.671875 L 2.609375 -2.75 L 2.84375 -2.96875 L 3.421875 -2.96875 C 3.347656 -2.75 3.273438 -2.515625 3.203125 -2.265625 C 3.140625 -2.023438 3.078125 -1.789062 3.015625 -1.5625 C 2.960938 -1.332031 2.914062 -1.128906 2.875 -0.953125 C 2.84375 -0.773438 2.828125 -0.640625 2.828125 -0.546875 C 2.921875 -0.597656 3.007812 -0.664062 3.09375 -0.75 C 3.1875 -0.84375 3.273438 -0.945312 3.359375 -1.0625 L 3.578125 -0.8125 C 3.460938 -0.65625 3.332031 -0.507812 3.1875 -0.375 C 3.039062 -0.25 2.890625 -0.144531 2.734375 -0.0625 C 2.585938 0.0078125 2.445312 0.046875 2.3125 0.046875 C 2.207031 0.046875 2.125 0.015625 2.0625 -0.046875 C 2 -0.109375 1.96875 -0.195312 1.96875 -0.3125 C 1.96875 -0.382812 1.976562 -0.488281 2 -0.625 C 2.03125 -0.757812 2.078125 -0.9375 2.140625 -1.15625 C 2.203125 -1.375 2.28125 -1.644531 2.375 -1.96875 L 2.4375 -1.96875 C 2.300781 -1.550781 2.140625 -1.191406 1.953125 -0.890625 C 1.773438 -0.585938 1.585938 -0.351562 1.390625 -0.1875 C 1.191406 -0.03125 0.988281 0.046875 0.78125 0.046875 Z M 0.78125 0.046875 "/></g></g></g><g fill="#3d3b3a" fill-opacity="1"><g transform="translate(46.436576, 6.918156)"><g><path d="M 2.25 -0.859375 C 2.03125 -0.546875 1.800781 -0.316406 1.5625 -0.171875 C 1.320312 -0.0234375 1.082031 0.046875 0.84375 0.046875 C 0.65625 0.046875 0.515625 0.00390625 0.421875 -0.078125 C 0.328125 -0.160156 0.28125 -0.285156 0.28125 -0.453125 C 0.28125 -0.503906 0.285156 -0.5625 0.296875 -0.625 C 0.304688 -0.695312 0.320312 -0.773438 0.34375 -0.859375 L 0.765625 -2.546875 L 0.28125 -2.546875 L 0.328125 -2.75 L 1.6875 -3.671875 L 1.890625 -3.671875 L 1.640625 -2.71875 L 1.234375 -1.03125 C 1.222656 -0.945312 1.210938 -0.882812 1.203125 -0.84375 C 1.191406 -0.800781 1.1875 -0.769531 1.1875 -0.75 C 1.1875 -0.644531 1.234375 -0.59375 1.328125 -0.59375 C 1.410156 -0.59375 1.507812 -0.628906 1.625 -0.703125 C 1.738281 -0.785156 1.878906 -0.941406 2.046875 -1.171875 Z M 1.28125 -2.546875 L 1.375 -2.953125 L 2.453125 -2.953125 L 2.375 -2.546875 Z M 1.28125 -2.546875 "/></g></g></g><g fill="#3d3b3a" fill-opacity="1"><g transform="translate(50.867002, 6.918156)"><g><path d="M 1.296875 0.046875 C 0.953125 0.046875 0.675781 -0.046875 0.46875 -0.234375 C 0.269531 -0.421875 0.171875 -0.679688 0.171875 -1.015625 C 0.171875 -1.285156 0.21875 -1.539062 0.3125 -1.78125 C 0.414062 -2.019531 0.550781 -2.234375 0.71875 -2.421875 C 0.882812 -2.609375 1.078125 -2.753906 1.296875 -2.859375 C 1.515625 -2.972656 1.75 -3.03125 2 -3.03125 C 2.257812 -3.03125 2.457031 -2.972656 2.59375 -2.859375 C 2.726562 -2.753906 2.796875 -2.617188 2.796875 -2.453125 C 2.796875 -2.359375 2.769531 -2.257812 2.71875 -2.15625 C 2.664062 -2.050781 2.570312 -1.941406 2.4375 -1.828125 C 2.3125 -1.722656 2.128906 -1.609375 1.890625 -1.484375 C 1.660156 -1.359375 1.359375 -1.234375 0.984375 -1.109375 L 0.984375 -1.46875 C 1.234375 -1.5625 1.429688 -1.660156 1.578125 -1.765625 C 1.722656 -1.867188 1.820312 -1.972656 1.875 -2.078125 C 1.9375 -2.191406 1.96875 -2.304688 1.96875 -2.421875 C 1.96875 -2.492188 1.945312 -2.550781 1.90625 -2.59375 C 1.863281 -2.632812 1.8125 -2.65625 1.75 -2.65625 C 1.644531 -2.65625 1.539062 -2.59375 1.4375 -2.46875 C 1.332031 -2.351562 1.242188 -2.1875 1.171875 -1.96875 C 1.109375 -1.75 1.078125 -1.492188 1.078125 -1.203125 C 1.078125 -0.992188 1.125 -0.835938 1.21875 -0.734375 C 1.3125 -0.628906 1.429688 -0.578125 1.578125 -0.578125 C 1.691406 -0.578125 1.828125 -0.609375 1.984375 -0.671875 C 2.148438 -0.742188 2.304688 -0.867188 2.453125 -1.046875 L 2.65625 -0.75 C 2.457031 -0.46875 2.234375 -0.265625 1.984375 -0.140625 C 1.734375 -0.015625 1.503906 0.046875 1.296875 0.046875 Z M 1.296875 0.046875 "/></g></g></g></g></g><path stroke-linecap="round" transform="matrix(-0.00968404, -0.749937, 0.749937, -0.00968404, 0.237236, 59.668112)" fill="none" stroke-linejoin="miter" d="M 1.501781 1.500077 L 26.404919 1.498711 " stroke="#3d3b3a" stroke-width="3" stroke-opacity="1" stroke-miterlimit="4"/><path stroke-linecap="round" transform="matrix(0.594469, -0.457282, 0.457282, 0.594469, -0.0510365, 38.987175)" fill="none" stroke-linejoin="miter" d="M 1.502057 1.498975 L 30.471894 1.501137 " stroke="#3d3b3a" stroke-width="3" stroke-opacity="1" stroke-miterlimit="4"/><path stroke-linecap="round" transform="matrix(0.595341, 0.456146, -0.456146, 0.595341, 19.02369, 24.282009)" fill="none" stroke-linejoin="miter" d="M 1.502115 1.498607 L 30.668254 1.49971 " stroke="#3d3b3a" stroke-width="3" stroke-opacity="1" stroke-miterlimit="4"/><path stroke-linecap="butt" transform="matrix(0, -0.75, 0.75, 0, 5.928271, 35.131967)" fill="none" stroke-linejoin="miter" d="M -0.00112773 1.501888 L 8.165539 1.501888 " stroke="#3d3b3a" stroke-width="3" stroke-opacity="1" stroke-miterlimit="4"/><path stroke-linecap="round" transform="matrix(-0.00968404, -0.749937, 0.749937, -0.00968404, 36.043849, 59.668112)" fill="none" stroke-linejoin="miter" d="M 1.501814 1.497509 L 26.404884 1.501351 " stroke="#3d3b3a" stroke-width="3" stroke-opacity="1" stroke-miterlimit="4"/><path stroke-linecap="butt" transform="matrix(0, -0.75, 0.75, 0, 7.664154, 33.304131)" fill="none" stroke-linejoin="miter" d="M -0.000741837 1.499879 L 5.733633 1.499879 " stroke="#3d3b3a" stroke-width="3" stroke-opacity="1" stroke-miterlimit="4"/><path stroke-linecap="round" transform="matrix(0, 0.75, -0.75, 0, 52.038848, 21.322266)" fill="none" stroke-linejoin="miter" d="M 1.502603 1.499714 L 61.643231 1.499714 " stroke="#3d3b3a" stroke-width="3" stroke-opacity="1" stroke-miterlimit="4"/></svg>